<svg xmlns="http://www.w3.org/2000/svg" xmlns:xlink="http://www.w3.org/1999/xlink" width="386" zoomAndPan="magnify" viewBox="0 0 289.5 42" height="56" preserveAspectRatio="xMidYMid meet" version="1.0"><defs><g/><clipPath id="acc76ac7ac"><path d="M 3.121094 0 L 285.890625 0 L 285.890625 41.023438 L 3.121094 41.023438 Z M 3.121094 0 " clip-rule="nonzero"/></clipPath><clipPath id="b72364a2bf"><path d="M 103.847656 24.613281 L 116.152344 24.613281 L 116.152344 36.921875 L 103.847656 36.921875 Z M 103.847656 24.613281 " clip-rule="nonzero"/></clipPath><clipPath id="d47900bba8"><path d="M 172.707031 24.613281 L 185.011719 24.613281 L 185.011719 36.921875 L 172.707031 36.921875 Z M 172.707031 24.613281 " clip-rule="nonzero"/></clipPath><clipPath id="4ca4a73c84"><path d="M 178.859375 24.613281 C 175.460938 24.613281 172.707031 27.367188 172.707031 30.765625 C 172.707031 34.164062 175.460938 36.921875 178.859375 36.921875 C 182.257812 36.921875 185.011719 34.164062 185.011719 30.765625 C 185.011719 27.367188 182.257812 24.613281 178.859375 24.613281 Z M 178.859375 24.613281 " clip-rule="nonzero"/></clipPath><clipPath id="570a4dad88"><path d="M 137.398438 24.613281 L 151.484375 24.613281 L 151.484375 36.921875 L 137.398438 36.921875 Z M 137.398438 24.613281 " clip-rule="nonzero"/></clipPath><clipPath id="81025265b1"><path d="M 144.429688 24.613281 L 151.460938 36.921875 L 137.398438 36.921875 Z M 144.429688 24.613281 " clip-rule="nonzero"/></clipPath></defs><g clip-path="url(#acc76ac7ac)"><path fill="#ffffff" d="M 3.121094 0 L 285.890625 0 L 285.890625 41.023438 L 3.121094 41.023438 Z M 3.121094 0 " fill-opacity="1" fill-rule="nonzero"/><path fill="#ffffff" d="M 3.121094 0 L 285.890625 0 L 285.890625 41.023438 L 3.121094 41.023438 Z M 3.121094 0 " fill-opacity="1" fill-rule="nonzero"/></g><g clip-path="url(#b72364a2bf)"><path fill="#000000" d="M 103.847656 24.613281 L 116.152344 24.613281 L 116.152344 36.921875 L 103.847656 36.921875 Z M 103.847656 24.613281 " fill-opacity="1" fill-rule="nonzero"/></g><g clip-path="url(#d47900bba8)"><g clip-path="url(#4ca4a73c84)"><path fill="#000000" d="M 172.707031 24.613281 L 185.011719 24.613281 L 185.011719 36.921875 L 172.707031 36.921875 Z M 172.707031 24.613281 " fill-opacity="1" fill-rule="nonzero"/></g></g><g clip-path="url(#570a4dad88)"><g clip-path="url(#81025265b1)"><path fill="#000000" d="M 137.398438 24.613281 L 151.484375 24.613281 L 151.484375 36.921875 L 137.398438 36.921875 Z M 137.398438 24.613281 " fill-opacity="1" fill-rule="nonzero"/></g></g><g fill="#000000" fill-opacity="1"><g transform="translate(13.696773, 15.99491)"><g><path d="M 1.140625 -10.96875 C 1.367188 -11.175781 1.632812 -11.28125 1.9375 -11.28125 C 2.25 -11.28125 2.519531 -11.175781 2.75 -10.96875 C 2.988281 -10.769531 3.109375 -10.539062 3.109375 -10.28125 L 3.109375 -10.21875 C 3.109375 -10.039062 3.035156 -9.628906 2.890625 -8.984375 C 2.753906 -8.347656 2.613281 -7.753906 2.46875 -7.203125 L 2.265625 -6.390625 L 1.375 -6.390625 C 1 -8.535156 0.8125 -9.8125 0.8125 -10.21875 L 0.8125 -10.28125 C 0.8125 -10.539062 0.921875 -10.769531 1.140625 -10.96875 Z M 4.125 -10.96875 C 4.351562 -11.175781 4.617188 -11.28125 4.921875 -11.28125 C 5.234375 -11.28125 5.503906 -11.175781 5.734375 -10.96875 C 5.972656 -10.769531 6.09375 -10.539062 6.09375 -10.28125 L 6.09375 -10.21875 C 6.09375 -10.039062 6.019531 -9.628906 5.875 -8.984375 C 5.738281 -8.347656 5.597656 -7.753906 5.453125 -7.203125 L 5.25 -6.390625 L 4.359375 -6.390625 C 3.984375 -8.535156 3.796875 -9.8125 3.796875 -10.21875 L 3.796875 -10.28125 C 3.796875 -10.539062 3.90625 -10.769531 4.125 -10.96875 Z M 4.125 -10.96875 "/></g></g></g><g fill="#000000" fill-opacity="1"><g transform="translate(20.584547, 15.99491)"><g><path d="M 9.3125 0 L 7.53125 -6.21875 L 5.765625 0 L 2.953125 0 L -0.203125 -11.09375 L 2.609375 -11.09375 L 4.5 -3.484375 L 4.5625 -3.484375 L 6.578125 -11.09375 L 8.5 -11.09375 L 10.515625 -3.484375 L 10.578125 -3.484375 L 12.46875 -11.09375 L 15.265625 -11.09375 L 12.109375 0 Z M 9.3125 0 "/></g></g></g><g fill="#000000" fill-opacity="1"><g transform="translate(35.635611, 15.99491)"><g><path d="M 0.8125 0 L 0.8125 -11.5625 L 3.1875 -11.5625 L 3.1875 -6.171875 L 3.21875 -6.171875 C 3.832031 -6.785156 4.488281 -7.09375 5.1875 -7.09375 C 5.53125 -7.09375 5.867188 -7.046875 6.203125 -6.953125 C 6.535156 -6.867188 6.851562 -6.734375 7.15625 -6.546875 C 7.46875 -6.359375 7.71875 -6.09375 7.90625 -5.75 C 8.101562 -5.40625 8.203125 -5.003906 8.203125 -4.546875 L 8.203125 0 L 5.828125 0 L 5.828125 -3.890625 C 5.828125 -4.253906 5.710938 -4.566406 5.484375 -4.828125 C 5.253906 -5.097656 4.957031 -5.234375 4.59375 -5.234375 C 4.238281 -5.234375 3.914062 -5.09375 3.625 -4.8125 C 3.332031 -4.539062 3.1875 -4.234375 3.1875 -3.890625 L 3.1875 0 Z M 0.8125 0 "/></g></g></g><g fill="#000000" fill-opacity="1"><g transform="translate(44.510501, 15.99491)"><g><path d="M 7.78125 -3.125 L 2.78125 -3.125 C 2.78125 -2.632812 2.9375 -2.269531 3.25 -2.03125 C 3.5625 -1.800781 3.898438 -1.6875 4.265625 -1.6875 C 4.648438 -1.6875 4.953125 -1.738281 5.171875 -1.84375 C 5.398438 -1.945312 5.660156 -2.148438 5.953125 -2.453125 L 7.671875 -1.59375 C 6.953125 -0.394531 5.757812 0.203125 4.09375 0.203125 C 3.0625 0.203125 2.171875 -0.148438 1.421875 -0.859375 C 0.679688 -1.578125 0.3125 -2.4375 0.3125 -3.4375 C 0.3125 -4.4375 0.679688 -5.296875 1.421875 -6.015625 C 2.171875 -6.734375 3.0625 -7.09375 4.09375 -7.09375 C 5.1875 -7.09375 6.078125 -6.773438 6.765625 -6.140625 C 7.453125 -5.515625 7.796875 -4.613281 7.796875 -3.4375 C 7.796875 -3.28125 7.789062 -3.175781 7.78125 -3.125 Z M 2.84375 -4.4375 L 5.46875 -4.4375 C 5.414062 -4.789062 5.273438 -5.0625 5.046875 -5.25 C 4.816406 -5.445312 4.523438 -5.546875 4.171875 -5.546875 C 3.773438 -5.546875 3.457031 -5.441406 3.21875 -5.234375 C 2.988281 -5.035156 2.863281 -4.769531 2.84375 -4.4375 Z M 2.84375 -4.4375 "/></g></g></g><g fill="#000000" fill-opacity="1"><g transform="translate(52.606657, 15.99491)"><g><path d="M 0.8125 0 L 0.8125 -6.890625 L 3.1875 -6.890625 L 3.1875 -5.90625 L 3.21875 -5.90625 C 3.226562 -5.9375 3.253906 -5.976562 3.296875 -6.03125 C 3.335938 -6.082031 3.425781 -6.175781 3.5625 -6.3125 C 3.695312 -6.445312 3.835938 -6.566406 3.984375 -6.671875 C 4.140625 -6.785156 4.335938 -6.882812 4.578125 -6.96875 C 4.816406 -7.050781 5.066406 -7.09375 5.328125 -7.09375 C 5.585938 -7.09375 5.84375 -7.054688 6.09375 -6.984375 C 6.34375 -6.910156 6.523438 -6.835938 6.640625 -6.765625 L 6.828125 -6.671875 L 5.828125 -4.65625 C 5.535156 -4.90625 5.125 -5.03125 4.59375 -5.03125 C 4.3125 -5.03125 4.066406 -4.96875 3.859375 -4.84375 C 3.648438 -4.71875 3.503906 -4.5625 3.421875 -4.375 C 3.335938 -4.195312 3.273438 -4.046875 3.234375 -3.921875 C 3.203125 -3.796875 3.1875 -3.695312 3.1875 -3.625 L 3.1875 0 Z M 0.8125 0 "/></g></g></g><g fill="#000000" fill-opacity="1"><g transform="translate(59.293038, 15.99491)"><g><path d="M 7.78125 -3.125 L 2.78125 -3.125 C 2.78125 -2.632812 2.9375 -2.269531 3.25 -2.03125 C 3.5625 -1.800781 3.898438 -1.6875 4.265625 -1.6875 C 4.648438 -1.6875 4.953125 -1.738281 5.171875 -1.84375 C 5.398438 -1.945312 5.660156 -2.148438 5.953125 -2.453125 L 7.671875 -1.59375 C 6.953125 -0.394531 5.757812 0.203125 4.09375 0.203125 C 3.0625 0.203125 2.171875 -0.148438 1.421875 -0.859375 C 0.679688 -1.578125 0.3125 -2.4375 0.3125 -3.4375 C 0.3125 -4.4375 0.679688 -5.296875 1.421875 -6.015625 C 2.171875 -6.734375 3.0625 -7.09375 4.09375 -7.09375 C 5.1875 -7.09375 6.078125 -6.773438 6.765625 -6.140625 C 7.453125 -5.515625 7.796875 -4.613281 7.796875 -3.4375 C 7.796875 -3.28125 7.789062 -3.175781 7.78125 -3.125 Z M 2.84375 -4.4375 L 5.46875 -4.4375 C 5.414062 -4.789062 5.273438 -5.0625 5.046875 -5.25 C 4.816406 -5.445312 4.523438 -5.546875 4.171875 -5.546875 C 3.773438 -5.546875 3.457031 -5.441406 3.21875 -5.234375 C 2.988281 -5.035156 2.863281 -4.769531 2.84375 -4.4375 Z M 2.84375 -4.4375 "/></g></g></g><g fill="#000000" fill-opacity="1"><g transform="translate(67.389193, 15.99491)"><g/></g></g><g fill="#000000" fill-opacity="1"><g transform="translate(71.054622, 15.99491)"><g><path d="M 1.203125 -6.890625 L 1.203125 -9.453125 L 3.59375 -9.453125 L 3.59375 -6.890625 L 5.046875 -6.890625 L 5.046875 -5.078125 L 3.59375 -5.078125 L 3.59375 -2.890625 C 3.59375 -2.253906 3.769531 -1.9375 4.125 -1.9375 C 4.21875 -1.9375 4.3125 -1.953125 4.40625 -1.984375 C 4.507812 -2.023438 4.585938 -2.0625 4.640625 -2.09375 L 4.71875 -2.15625 L 5.3125 -0.234375 C 4.800781 0.0546875 4.21875 0.203125 3.5625 0.203125 C 3.113281 0.203125 2.726562 0.125 2.40625 -0.03125 C 2.082031 -0.1875 1.835938 -0.394531 1.671875 -0.65625 C 1.503906 -0.925781 1.382812 -1.207031 1.3125 -1.5 C 1.238281 -1.789062 1.203125 -2.101562 1.203125 -2.4375 L 1.203125 -5.078125 L 0.21875 -5.078125 L 0.21875 -6.890625 Z M 1.203125 -6.890625 "/></g></g></g><g fill="#000000" fill-opacity="1"><g transform="translate(76.358078, 15.99491)"><g><path d="M 0.8125 0 L 0.8125 -11.5625 L 3.1875 -11.5625 L 3.1875 -6.171875 L 3.21875 -6.171875 C 3.832031 -6.785156 4.488281 -7.09375 5.1875 -7.09375 C 5.53125 -7.09375 5.867188 -7.046875 6.203125 -6.953125 C 6.535156 -6.867188 6.851562 -6.734375 7.15625 -6.546875 C 7.46875 -6.359375 7.71875 -6.09375 7.90625 -5.75 C 8.101562 -5.40625 8.203125 -5.003906 8.203125 -4.546875 L 8.203125 0 L 5.828125 0 L 5.828125 -3.890625 C 5.828125 -4.253906 5.710938 -4.566406 5.484375 -4.828125 C 5.253906 -5.097656 4.957031 -5.234375 4.59375 -5.234375 C 4.238281 -5.234375 3.914062 -5.09375 3.625 -4.8125 C 3.332031 -4.539062 3.1875 -4.234375 3.1875 -3.890625 L 3.1875 0 Z M 0.8125 0 "/></g></g></g><g fill="#000000" fill-opacity="1"><g transform="translate(85.232968, 15.99491)"><g><path d="M 7.78125 -3.125 L 2.78125 -3.125 C 2.78125 -2.632812 2.9375 -2.269531 3.25 -2.03125 C 3.5625 -1.800781 3.898438 -1.6875 4.265625 -1.6875 C 4.648438 -1.6875 4.953125 -1.738281 5.171875 -1.84375 C 5.398438 -1.945312 5.660156 -2.148438 5.953125 -2.453125 L 7.671875 -1.59375 C 6.953125 -0.394531 5.757812 0.203125 4.09375 0.203125 C 3.0625 0.203125 2.171875 -0.148438 1.421875 -0.859375 C 0.679688 -1.578125 0.3125 -2.4375 0.3125 -3.4375 C 0.3125 -4.4375 0.679688 -5.296875 1.421875 -6.015625 C 2.171875 -6.734375 3.0625 -7.09375 4.09375 -7.09375 C 5.1875 -7.09375 6.078125 -6.773438 6.765625 -6.140625 C 7.453125 -5.515625 7.796875 -4.613281 7.796875 -3.4375 C 7.796875 -3.28125 7.789062 -3.175781 7.78125 -3.125 Z M 2.84375 -4.4375 L 5.46875 -4.4375 C 5.414062 -4.789062 5.273438 -5.0625 5.046875 -5.25 C 4.816406 -5.445312 4.523438 -5.546875 4.171875 -5.546875 C 3.773438 -5.546875 3.457031 -5.441406 3.21875 -5.234375 C 2.988281 -5.035156 2.863281 -4.769531 2.84375 -4.4375 Z M 2.84375 -4.4375 "/></g></g></g><g fill="#000000" fill-opacity="1"><g transform="translate(93.329124, 15.99491)"><g><path d="M 0.8125 0 L 0.8125 -6.890625 L 3.1875 -6.890625 L 3.1875 -5.90625 L 3.21875 -5.90625 C 3.226562 -5.9375 3.253906 -5.976562 3.296875 -6.03125 C 3.335938 -6.082031 3.425781 -6.175781 3.5625 -6.3125 C 3.695312 -6.445312 3.835938 -6.566406 3.984375 -6.671875 C 4.140625 -6.785156 4.335938 -6.882812 4.578125 -6.96875 C 4.816406 -7.050781 5.066406 -7.09375 5.328125 -7.09375 C 5.585938 -7.09375 5.84375 -7.054688 6.09375 -6.984375 C 6.34375 -6.910156 6.523438 -6.835938 6.640625 -6.765625 L 6.828125 -6.671875 L 5.828125 -4.65625 C 5.535156 -4.90625 5.125 -5.03125 4.59375 -5.03125 C 4.3125 -5.03125 4.066406 -4.96875 3.859375 -4.84375 C 3.648438 -4.71875 3.503906 -4.5625 3.421875 -4.375 C 3.335938 -4.195312 3.273438 -4.046875 3.234375 -3.921875 C 3.203125 -3.796875 3.1875 -3.695312 3.1875 -3.625 L 3.1875 0 Z M 0.8125 0 "/></g></g></g><g fill="#000000" fill-opacity="1"><g transform="translate(100.015505, 15.99491)"><g><path d="M 7.78125 -3.125 L 2.78125 -3.125 C 2.78125 -2.632812 2.9375 -2.269531 3.25 -2.03125 C 3.5625 -1.800781 3.898438 -1.6875 4.265625 -1.6875 C 4.648438 -1.6875 4.953125 -1.738281 5.171875 -1.84375 C 5.398438 -1.945312 5.660156 -2.148438 5.953125 -2.453125 L 7.671875 -1.59375 C 6.953125 -0.394531 5.757812 0.203125 4.09375 0.203125 C 3.0625 0.203125 2.171875 -0.148438 1.421875 -0.859375 C 0.679688 -1.578125 0.3125 -2.4375 0.3125 -3.4375 C 0.3125 -4.4375 0.679688 -5.296875 1.421875 -6.015625 C 2.171875 -6.734375 3.0625 -7.09375 4.09375 -7.09375 C 5.1875 -7.09375 6.078125 -6.773438 6.765625 -6.140625 C 7.453125 -5.515625 7.796875 -4.613281 7.796875 -3.4375 C 7.796875 -3.28125 7.789062 -3.175781 7.78125 -3.125 Z M 2.84375 -4.4375 L 5.46875 -4.4375 C 5.414062 -4.789062 5.273438 -5.0625 5.046875 -5.25 C 4.816406 -5.445312 4.523438 -5.546875 4.171875 -5.546875 C 3.773438 -5.546875 3.457031 -5.441406 3.21875 -5.234375 C 2.988281 -5.035156 2.863281 -4.769531 2.84375 -4.4375 Z M 2.84375 -4.4375 "/></g></g></g><g fill="#000000" fill-opacity="1"><g transform="translate(108.11166, 15.99491)"><g><path d="M 1.203125 -10.875 C 1.472656 -11.144531 1.800781 -11.28125 2.1875 -11.28125 C 2.570312 -11.28125 2.898438 -11.140625 3.171875 -10.859375 C 3.453125 -10.585938 3.59375 -10.257812 3.59375 -9.875 C 3.59375 -8.695312 2.914062 -7.535156 1.5625 -6.390625 L 0.921875 -6.890625 C 0.984375 -6.941406 1.054688 -7.015625 1.140625 -7.109375 C 1.222656 -7.203125 1.347656 -7.398438 1.515625 -7.703125 C 1.691406 -8.003906 1.804688 -8.304688 1.859375 -8.609375 C 1.546875 -8.679688 1.289062 -8.832031 1.09375 -9.0625 C 0.90625 -9.300781 0.8125 -9.570312 0.8125 -9.875 C 0.8125 -10.269531 0.941406 -10.601562 1.203125 -10.875 Z M 1.203125 -10.875 "/></g></g></g><g fill="#000000" fill-opacity="1"><g transform="translate(112.018756, 15.99491)"><g><path d="M 3.796875 -7.09375 C 4.191406 -7.09375 4.582031 -7.046875 4.96875 -6.953125 C 5.351562 -6.867188 5.640625 -6.78125 5.828125 -6.6875 L 6.109375 -6.5625 L 5.328125 -5 C 4.796875 -5.28125 4.285156 -5.421875 3.796875 -5.421875 C 3.535156 -5.421875 3.347656 -5.390625 3.234375 -5.328125 C 3.117188 -5.273438 3.0625 -5.171875 3.0625 -5.015625 C 3.0625 -4.972656 3.066406 -4.929688 3.078125 -4.890625 C 3.085938 -4.859375 3.101562 -4.828125 3.125 -4.796875 C 3.15625 -4.765625 3.179688 -4.738281 3.203125 -4.71875 C 3.222656 -4.695312 3.257812 -4.671875 3.3125 -4.640625 C 3.375 -4.617188 3.421875 -4.597656 3.453125 -4.578125 C 3.484375 -4.566406 3.53125 -4.546875 3.59375 -4.515625 C 3.664062 -4.492188 3.71875 -4.476562 3.75 -4.46875 C 3.789062 -4.457031 3.851562 -4.4375 3.9375 -4.40625 C 4.03125 -4.382812 4.097656 -4.367188 4.140625 -4.359375 C 4.421875 -4.273438 4.660156 -4.179688 4.859375 -4.078125 C 5.066406 -3.984375 5.285156 -3.847656 5.515625 -3.671875 C 5.742188 -3.503906 5.921875 -3.289062 6.046875 -3.03125 C 6.171875 -2.769531 6.234375 -2.476562 6.234375 -2.15625 C 6.234375 -0.582031 5.144531 0.203125 2.96875 0.203125 C 2.476562 0.203125 2.007812 0.128906 1.5625 -0.015625 C 1.125 -0.171875 0.804688 -0.328125 0.609375 -0.484375 L 0.3125 -0.71875 L 1.28125 -2.359375 C 1.351562 -2.285156 1.445312 -2.207031 1.5625 -2.125 C 1.675781 -2.039062 1.882812 -1.925781 2.1875 -1.78125 C 2.488281 -1.632812 2.753906 -1.5625 2.984375 -1.5625 C 3.472656 -1.5625 3.71875 -1.726562 3.71875 -2.0625 C 3.71875 -2.207031 3.65625 -2.320312 3.53125 -2.40625 C 3.40625 -2.5 3.191406 -2.597656 2.890625 -2.703125 C 2.597656 -2.804688 2.363281 -2.90625 2.1875 -3 C 1.757812 -3.21875 1.421875 -3.46875 1.171875 -3.75 C 0.921875 -4.03125 0.796875 -4.40625 0.796875 -4.875 C 0.796875 -5.570312 1.066406 -6.113281 1.609375 -6.5 C 2.148438 -6.894531 2.878906 -7.09375 3.796875 -7.09375 Z M 3.796875 -7.09375 "/></g></g></g><g fill="#000000" fill-opacity="1"><g transform="translate(118.624578, 15.99491)"><g/></g></g><g fill="#000000" fill-opacity="1"><g transform="translate(122.290007, 15.99491)"><g><path d="M 1.28125 -0.84375 C 0.632812 -1.550781 0.3125 -2.414062 0.3125 -3.4375 C 0.3125 -4.457031 0.632812 -5.320312 1.28125 -6.03125 C 1.925781 -6.738281 2.742188 -7.09375 3.734375 -7.09375 C 4.648438 -7.09375 5.40625 -6.804688 6 -6.234375 L 6 -6.890625 L 8.375 -6.890625 L 8.375 0 L 6.015625 0 L 6.015625 -0.78125 L 6 -0.78125 C 5.40625 -0.125 4.648438 0.203125 3.734375 0.203125 C 2.742188 0.203125 1.925781 -0.144531 1.28125 -0.84375 Z M 3.296875 -4.609375 C 2.984375 -4.304688 2.828125 -3.914062 2.828125 -3.4375 C 2.828125 -2.96875 2.972656 -2.582031 3.265625 -2.28125 C 3.566406 -1.976562 3.960938 -1.828125 4.453125 -1.828125 C 4.910156 -1.828125 5.289062 -1.976562 5.59375 -2.28125 C 5.894531 -2.582031 6.046875 -2.96875 6.046875 -3.4375 C 6.046875 -3.914062 5.890625 -4.304688 5.578125 -4.609375 C 5.273438 -4.910156 4.898438 -5.0625 4.453125 -5.0625 C 3.992188 -5.0625 3.609375 -4.910156 3.296875 -4.609375 Z M 3.296875 -4.609375 "/></g></g></g><g fill="#000000" fill-opacity="1"><g transform="translate(131.460285, 15.99491)"><g/></g></g><g fill="#000000" fill-opacity="1"><g transform="translate(135.125713, 15.99491)"><g><path d="M 5.046875 0 L 3.421875 0 L -0.265625 -6.890625 L 2.46875 -6.890625 L 4.15625 -3.171875 L 5.8125 -6.890625 L 7.4375 -6.890625 L 9.09375 -3.171875 L 10.78125 -6.890625 L 13.515625 -6.890625 L 9.828125 0 L 8.203125 0 L 6.625 -3.5625 Z M 5.046875 0 "/></g></g></g><g fill="#000000" fill-opacity="1"><g transform="translate(148.364206, 15.99491)"><g><path d="M 1.03125 -10.734375 C 1.3125 -11.015625 1.644531 -11.15625 2.03125 -11.15625 C 2.414062 -11.15625 2.742188 -11.015625 3.015625 -10.734375 C 3.296875 -10.453125 3.4375 -10.117188 3.4375 -9.734375 C 3.4375 -9.359375 3.296875 -9.03125 3.015625 -8.75 C 2.742188 -8.46875 2.414062 -8.328125 2.03125 -8.328125 C 1.644531 -8.328125 1.3125 -8.46875 1.03125 -8.75 C 0.757812 -9.03125 0.625 -9.359375 0.625 -9.734375 C 0.625 -10.117188 0.757812 -10.453125 1.03125 -10.734375 Z M 0.8125 -6.890625 L 0.8125 0 L 3.1875 0 L 3.1875 -6.890625 Z M 0.8125 -6.890625 "/></g></g></g><g fill="#000000" fill-opacity="1"><g transform="translate(152.418996, 15.99491)"><g><path d="M 0.8125 0 L 0.8125 -11.5625 L 3.1875 -11.5625 L 3.1875 0 Z M 0.8125 0 "/></g></g></g><g fill="#000000" fill-opacity="1"><g transform="translate(156.406652, 15.99491)"><g><path d="M 0.8125 0 L 0.8125 -11.5625 L 3.1875 -11.5625 L 3.1875 0 Z M 0.8125 0 "/></g></g></g><g fill="#000000" fill-opacity="1"><g transform="translate(160.394307, 15.99491)"><g><path d="M 2.34375 -2.875 C 2.769531 -2.875 3.132812 -2.722656 3.4375 -2.421875 C 3.738281 -2.117188 3.890625 -1.753906 3.890625 -1.328125 C 3.890625 -0.00390625 3.132812 1.28125 1.625 2.53125 L 0.9375 1.96875 C 1 1.90625 1.078125 1.820312 1.171875 1.71875 C 1.265625 1.613281 1.40625 1.394531 1.59375 1.0625 C 1.78125 0.738281 1.90625 0.410156 1.96875 0.078125 C 1.625 -0.00390625 1.34375 -0.171875 1.125 -0.421875 C 0.914062 -0.679688 0.8125 -0.984375 0.8125 -1.328125 C 0.8125 -1.753906 0.957031 -2.117188 1.25 -2.421875 C 1.550781 -2.722656 1.914062 -2.875 2.34375 -2.875 Z M 2.34375 -2.875 "/></g></g></g><g fill="#000000" fill-opacity="1"><g transform="translate(165.080148, 15.99491)"><g/></g></g><g fill="#000000" fill-opacity="1"><g transform="translate(168.745577, 15.99491)"><g><path d="M 1.203125 -6.890625 L 1.203125 -9.453125 L 3.59375 -9.453125 L 3.59375 -6.890625 L 5.046875 -6.890625 L 5.046875 -5.078125 L 3.59375 -5.078125 L 3.59375 -2.890625 C 3.59375 -2.253906 3.769531 -1.9375 4.125 -1.9375 C 4.21875 -1.9375 4.3125 -1.953125 4.40625 -1.984375 C 4.507812 -2.023438 4.585938 -2.0625 4.640625 -2.09375 L 4.71875 -2.15625 L 5.3125 -0.234375 C 4.800781 0.0546875 4.21875 0.203125 3.5625 0.203125 C 3.113281 0.203125 2.726562 0.125 2.40625 -0.03125 C 2.082031 -0.1875 1.835938 -0.394531 1.671875 -0.65625 C 1.503906 -0.925781 1.382812 -1.207031 1.3125 -1.5 C 1.238281 -1.789062 1.203125 -2.101562 1.203125 -2.4375 L 1.203125 -5.078125 L 0.21875 -5.078125 L 0.21875 -6.890625 Z M 1.203125 -6.890625 "/></g></g></g><g fill="#000000" fill-opacity="1"><g transform="translate(174.049033, 15.99491)"><g><path d="M 0.8125 0 L 0.8125 -11.5625 L 3.1875 -11.5625 L 3.1875 -6.171875 L 3.21875 -6.171875 C 3.832031 -6.785156 4.488281 -7.09375 5.1875 -7.09375 C 5.53125 -7.09375 5.867188 -7.046875 6.203125 -6.953125 C 6.535156 -6.867188 6.851562 -6.734375 7.15625 -6.546875 C 7.46875 -6.359375 7.71875 -6.09375 7.90625 -5.75 C 8.101562 -5.40625 8.203125 -5.003906 8.203125 -4.546875 L 8.203125 0 L 5.828125 0 L 5.828125 -3.890625 C 5.828125 -4.253906 5.710938 -4.566406 5.484375 -4.828125 C 5.253906 -5.097656 4.957031 -5.234375 4.59375 -5.234375 C 4.238281 -5.234375 3.914062 -5.09375 3.625 -4.8125 C 3.332031 -4.539062 3.1875 -4.234375 3.1875 -3.890625 L 3.1875 0 Z M 0.8125 0 "/></g></g></g><g fill="#000000" fill-opacity="1"><g transform="translate(182.923923, 15.99491)"><g><path d="M 7.78125 -3.125 L 2.78125 -3.125 C 2.78125 -2.632812 2.9375 -2.269531 3.25 -2.03125 C 3.5625 -1.800781 3.898438 -1.6875 4.265625 -1.6875 C 4.648438 -1.6875 4.953125 -1.738281 5.171875 -1.84375 C 5.398438 -1.945312 5.660156 -2.148438 5.953125 -2.453125 L 7.671875 -1.59375 C 6.953125 -0.394531 5.757812 0.203125 4.09375 0.203125 C 3.0625 0.203125 2.171875 -0.148438 1.421875 -0.859375 C 0.679688 -1.578125 0.3125 -2.4375 0.3125 -3.4375 C 0.3125 -4.4375 0.679688 -5.296875 1.421875 -6.015625 C 2.171875 -6.734375 3.0625 -7.09375 4.09375 -7.09375 C 5.1875 -7.09375 6.078125 -6.773438 6.765625 -6.140625 C 7.453125 -5.515625 7.796875 -4.613281 7.796875 -3.4375 C 7.796875 -3.28125 7.789062 -3.175781 7.78125 -3.125 Z M 2.84375 -4.4375 L 5.46875 -4.4375 C 5.414062 -4.789062 5.273438 -5.0625 5.046875 -5.25 C 4.816406 -5.445312 4.523438 -5.546875 4.171875 -5.546875 C 3.773438 -5.546875 3.457031 -5.441406 3.21875 -5.234375 C 2.988281 -5.035156 2.863281 -4.769531 2.84375 -4.4375 Z M 2.84375 -4.4375 "/></g></g></g><g fill="#000000" fill-opacity="1"><g transform="translate(191.020079, 15.99491)"><g><path d="M 0.8125 0 L 0.8125 -6.890625 L 3.1875 -6.890625 L 3.1875 -5.90625 L 3.21875 -5.90625 C 3.226562 -5.9375 3.253906 -5.976562 3.296875 -6.03125 C 3.335938 -6.082031 3.425781 -6.175781 3.5625 -6.3125 C 3.695312 -6.445312 3.835938 -6.566406 3.984375 -6.671875 C 4.140625 -6.785156 4.335938 -6.882812 4.578125 -6.96875 C 4.816406 -7.050781 5.066406 -7.09375 5.328125 -7.09375 C 5.585938 -7.09375 5.84375 -7.054688 6.09375 -6.984375 C 6.34375 -6.910156 6.523438 -6.835938 6.640625 -6.765625 L 6.828125 -6.671875 L 5.828125 -4.65625 C 5.535156 -4.90625 5.125 -5.03125 4.59375 -5.03125 C 4.3125 -5.03125 4.066406 -4.96875 3.859375 -4.84375 C 3.648438 -4.71875 3.503906 -4.5625 3.421875 -4.375 C 3.335938 -4.195312 3.273438 -4.046875 3.234375 -3.921875 C 3.203125 -3.796875 3.1875 -3.695312 3.1875 -3.625 L 3.1875 0 Z M 0.8125 0 "/></g></g></g><g fill="#000000" fill-opacity="1"><g transform="translate(197.70646, 15.99491)"><g><path d="M 7.78125 -3.125 L 2.78125 -3.125 C 2.78125 -2.632812 2.9375 -2.269531 3.25 -2.03125 C 3.5625 -1.800781 3.898438 -1.6875 4.265625 -1.6875 C 4.648438 -1.6875 4.953125 -1.738281 5.171875 -1.84375 C 5.398438 -1.945312 5.660156 -2.148438 5.953125 -2.453125 L 7.671875 -1.59375 C 6.953125 -0.394531 5.757812 0.203125 4.09375 0.203125 C 3.0625 0.203125 2.171875 -0.148438 1.421875 -0.859375 C 0.679688 -1.578125 0.3125 -2.4375 0.3125 -3.4375 C 0.3125 -4.4375 0.679688 -5.296875 1.421875 -6.015625 C 2.171875 -6.734375 3.0625 -7.09375 4.09375 -7.09375 C 5.1875 -7.09375 6.078125 -6.773438 6.765625 -6.140625 C 7.453125 -5.515625 7.796875 -4.613281 7.796875 -3.4375 C 7.796875 -3.28125 7.789062 -3.175781 7.78125 -3.125 Z M 2.84375 -4.4375 L 5.46875 -4.4375 C 5.414062 -4.789062 5.273438 -5.0625 5.046875 -5.25 C 4.816406 -5.445312 4.523438 -5.546875 4.171875 -5.546875 C 3.773438 -5.546875 3.457031 -5.441406 3.21875 -5.234375 C 2.988281 -5.035156 2.863281 -4.769531 2.84375 -4.4375 Z M 2.84375 -4.4375 "/></g></g></g><g fill="#000000" fill-opacity="1"><g transform="translate(205.802627, 15.99491)"><g><path d="M 1.203125 -10.875 C 1.472656 -11.144531 1.800781 -11.28125 2.1875 -11.28125 C 2.570312 -11.28125 2.898438 -11.140625 3.171875 -10.859375 C 3.453125 -10.585938 3.59375 -10.257812 3.59375 -9.875 C 3.59375 -8.695312 2.914062 -7.535156 1.5625 -6.390625 L 0.921875 -6.890625 C 0.984375 -6.941406 1.054688 -7.015625 1.140625 -7.109375 C 1.222656 -7.203125 1.347656 -7.398438 1.515625 -7.703125 C 1.691406 -8.003906 1.804688 -8.304688 1.859375 -8.609375 C 1.546875 -8.679688 1.289062 -8.832031 1.09375 -9.0625 C 0.90625 -9.300781 0.8125 -9.570312 0.8125 -9.875 C 0.8125 -10.269531 0.941406 -10.601562 1.203125 -10.875 Z M 1.203125 -10.875 "/></g></g></g><g fill="#000000" fill-opacity="1"><g transform="translate(209.709722, 15.99491)"><g><path d="M 3.796875 -7.09375 C 4.191406 -7.09375 4.582031 -7.046875 4.96875 -6.953125 C 5.351562 -6.867188 5.640625 -6.78125 5.828125 -6.6875 L 6.109375 -6.5625 L 5.328125 -5 C 4.796875 -5.28125 4.285156 -5.421875 3.796875 -5.421875 C 3.535156 -5.421875 3.347656 -5.390625 3.234375 -5.328125 C 3.117188 -5.273438 3.0625 -5.171875 3.0625 -5.015625 C 3.0625 -4.972656 3.066406 -4.929688 3.078125 -4.890625 C 3.085938 -4.859375 3.101562 -4.828125 3.125 -4.796875 C 3.15625 -4.765625 3.179688 -4.738281 3.203125 -4.71875 C 3.222656 -4.695312 3.257812 -4.671875 3.3125 -4.640625 C 3.375 -4.617188 3.421875 -4.597656 3.453125 -4.578125 C 3.484375 -4.566406 3.53125 -4.546875 3.59375 -4.515625 C 3.664062 -4.492188 3.71875 -4.476562 3.75 -4.46875 C 3.789062 -4.457031 3.851562 -4.4375 3.9375 -4.40625 C 4.03125 -4.382812 4.097656 -4.367188 4.140625 -4.359375 C 4.421875 -4.273438 4.660156 -4.179688 4.859375 -4.078125 C 5.066406 -3.984375 5.285156 -3.847656 5.515625 -3.671875 C 5.742188 -3.503906 5.921875 -3.289062 6.046875 -3.03125 C 6.171875 -2.769531 6.234375 -2.476562 6.234375 -2.15625 C 6.234375 -0.582031 5.144531 0.203125 2.96875 0.203125 C 2.476562 0.203125 2.007812 0.128906 1.5625 -0.015625 C 1.125 -0.171875 0.804688 -0.328125 0.609375 -0.484375 L 0.3125 -0.71875 L 1.28125 -2.359375 C 1.351562 -2.285156 1.445312 -2.207031 1.5625 -2.125 C 1.675781 -2.039062 1.882812 -1.925781 2.1875 -1.78125 C 2.488281 -1.632812 2.753906 -1.5625 2.984375 -1.5625 C 3.472656 -1.5625 3.71875 -1.726562 3.71875 -2.0625 C 3.71875 -2.207031 3.65625 -2.320312 3.53125 -2.40625 C 3.40625 -2.5 3.191406 -2.597656 2.890625 -2.703125 C 2.597656 -2.804688 2.363281 -2.90625 2.1875 -3 C 1.757812 -3.21875 1.421875 -3.46875 1.171875 -3.75 C 0.921875 -4.03125 0.796875 -4.40625 0.796875 -4.875 C 0.796875 -5.570312 1.066406 -6.113281 1.609375 -6.5 C 2.148438 -6.894531 2.878906 -7.09375 3.796875 -7.09375 Z M 3.796875 -7.09375 "/></g></g></g><g fill="#000000" fill-opacity="1"><g transform="translate(216.315533, 15.99491)"><g/></g></g><g fill="#000000" fill-opacity="1"><g transform="translate(219.980962, 15.99491)"><g><path d="M 1.28125 -0.84375 C 0.632812 -1.550781 0.3125 -2.414062 0.3125 -3.4375 C 0.3125 -4.457031 0.632812 -5.320312 1.28125 -6.03125 C 1.925781 -6.738281 2.742188 -7.09375 3.734375 -7.09375 C 4.648438 -7.09375 5.40625 -6.804688 6 -6.234375 L 6 -6.890625 L 8.375 -6.890625 L 8.375 0 L 6.015625 0 L 6.015625 -0.78125 L 6 -0.78125 C 5.40625 -0.125 4.648438 0.203125 3.734375 0.203125 C 2.742188 0.203125 1.925781 -0.144531 1.28125 -0.84375 Z M 3.296875 -4.609375 C 2.984375 -4.304688 2.828125 -3.914062 2.828125 -3.4375 C 2.828125 -2.96875 2.972656 -2.582031 3.265625 -2.28125 C 3.566406 -1.976562 3.960938 -1.828125 4.453125 -1.828125 C 4.910156 -1.828125 5.289062 -1.976562 5.59375 -2.28125 C 5.894531 -2.582031 6.046875 -2.96875 6.046875 -3.4375 C 6.046875 -3.914062 5.890625 -4.304688 5.578125 -4.609375 C 5.273438 -4.910156 4.898438 -5.0625 4.453125 -5.0625 C 3.992188 -5.0625 3.609375 -4.910156 3.296875 -4.609375 Z M 3.296875 -4.609375 "/></g></g></g><g fill="#000000" fill-opacity="1"><g transform="translate(229.15124, 15.99491)"><g/></g></g><g fill="#000000" fill-opacity="1"><g transform="translate(232.816669, 15.99491)"><g><path d="M 5.046875 0 L 3.421875 0 L -0.265625 -6.890625 L 2.46875 -6.890625 L 4.15625 -3.171875 L 5.8125 -6.890625 L 7.4375 -6.890625 L 9.09375 -3.171875 L 10.78125 -6.890625 L 13.515625 -6.890625 L 9.828125 0 L 8.203125 0 L 6.625 -3.5625 Z M 5.046875 0 "/></g></g></g><g fill="#000000" fill-opacity="1"><g transform="translate(246.055161, 15.99491)"><g><path d="M 1.28125 -0.84375 C 0.632812 -1.550781 0.3125 -2.414062 0.3125 -3.4375 C 0.3125 -4.457031 0.632812 -5.320312 1.28125 -6.03125 C 1.925781 -6.738281 2.742188 -7.09375 3.734375 -7.09375 C 4.648438 -7.09375 5.40625 -6.804688 6 -6.234375 L 6 -6.890625 L 8.375 -6.890625 L 8.375 0 L 6.015625 0 L 6.015625 -0.78125 L 6 -0.78125 C 5.40625 -0.125 4.648438 0.203125 3.734375 0.203125 C 2.742188 0.203125 1.925781 -0.144531 1.28125 -0.84375 Z M 3.296875 -4.609375 C 2.984375 -4.304688 2.828125 -3.914062 2.828125 -3.4375 C 2.828125 -2.96875 2.972656 -2.582031 3.265625 -2.28125 C 3.566406 -1.976562 3.960938 -1.828125 4.453125 -1.828125 C 4.910156 -1.828125 5.289062 -1.976562 5.59375 -2.28125 C 5.894531 -2.582031 6.046875 -2.96875 6.046875 -3.4375 C 6.046875 -3.914062 5.890625 -4.304688 5.578125 -4.609375 C 5.273438 -4.910156 4.898438 -5.0625 4.453125 -5.0625 C 3.992188 -5.0625 3.609375 -4.910156 3.296875 -4.609375 Z M 3.296875 -4.609375 "/></g></g></g><g fill="#000000" fill-opacity="1"><g transform="translate(255.22544, 15.99491)"><g><path d="M 6.03125 -6.890625 L 8.78125 -6.890625 L 3.359375 3.5 L 0.625 3.5 L 3 -1.078125 L -0.265625 -6.890625 L 2.46875 -6.890625 L 4.390625 -3.359375 Z M 6.03125 -6.890625 "/></g></g></g><g fill="#000000" fill-opacity="1"><g transform="translate(263.724393, 15.99491)"><g><path d="M 2.34375 -2.875 C 2.769531 -2.875 3.132812 -2.722656 3.4375 -2.421875 C 3.738281 -2.117188 3.890625 -1.753906 3.890625 -1.328125 C 3.890625 -0.910156 3.738281 -0.550781 3.4375 -0.25 C 3.132812 0.0507812 2.769531 0.203125 2.34375 0.203125 C 1.914062 0.203125 1.550781 0.0507812 1.25 -0.25 C 0.957031 -0.550781 0.8125 -0.910156 0.8125 -1.328125 C 0.8125 -1.753906 0.957031 -2.117188 1.25 -2.421875 C 1.550781 -2.722656 1.914062 -2.875 2.34375 -2.875 Z M 2.34375 -2.875 "/></g></g></g><g fill="#000000" fill-opacity="1"><g transform="translate(268.410234, 15.99491)"><g><path d="M 1.140625 -10.96875 C 1.367188 -11.175781 1.632812 -11.28125 1.9375 -11.28125 C 2.25 -11.28125 2.519531 -11.175781 2.75 -10.96875 C 2.988281 -10.769531 3.109375 -10.539062 3.109375 -10.28125 L 3.109375 -10.21875 C 3.109375 -10.039062 3.035156 -9.628906 2.890625 -8.984375 C 2.753906 -8.347656 2.613281 -7.753906 2.46875 -7.203125 L 2.265625 -6.390625 L 1.375 -6.390625 C 1 -8.535156 0.8125 -9.8125 0.8125 -10.21875 L 0.8125 -10.28125 C 0.8125 -10.539062 0.921875 -10.769531 1.140625 -10.96875 Z M 4.125 -10.96875 C 4.351562 -11.175781 4.617188 -11.28125 4.921875 -11.28125 C 5.234375 -11.28125 5.503906 -11.175781 5.734375 -10.96875 C 5.972656 -10.769531 6.09375 -10.539062 6.09375 -10.28125 L 6.09375 -10.21875 C 6.09375 -10.039062 6.019531 -9.628906 5.875 -8.984375 C 5.738281 -8.347656 5.597656 -7.753906 5.453125 -7.203125 L 5.25 -6.390625 L 4.359375 -6.390625 C 3.984375 -8.535156 3.796875 -9.8125 3.796875 -10.21875 L 3.796875 -10.28125 C 3.796875 -10.539062 3.90625 -10.769531 4.125 -10.96875 Z M 4.125 -10.96875 "/></g></g></g></svg>